<mxfile host="Electron" modified="2023-07-15T13:55:37.335Z" agent="Mozilla/5.0 (Windows NT 10.0; Win64; x64) AppleWebKit/537.36 (KHTML, like Gecko) draw.io/21.6.1 Chrome/112.0.5615.204 Electron/24.6.1 Safari/537.36" etag="rIRuxSPulQ_63hph-ilj" version="21.6.1" type="device">
  <diagram name="Page-1" id="DdDbfPROMC0vcML_Ydjf">
    <mxGraphModel dx="2897" dy="2186" grid="1" gridSize="10" guides="1" tooltips="1" connect="1" arrows="1" fold="1" page="1" pageScale="1" pageWidth="827" pageHeight="1169" math="0" shadow="0">
      <root>
        <mxCell id="0" />
        <mxCell id="1" parent="0" />
        <mxCell id="F8WtnGjkMqj1ZkM-OKdL-12" style="edgeStyle=orthogonalEdgeStyle;rounded=0;orthogonalLoop=1;jettySize=auto;html=1;exitX=1;exitY=0.5;exitDx=0;exitDy=0;entryX=0;entryY=0.5;entryDx=0;entryDy=0;" edge="1" parent="1" source="F8WtnGjkMqj1ZkM-OKdL-1" target="F8WtnGjkMqj1ZkM-OKdL-7">
          <mxGeometry relative="1" as="geometry" />
        </mxCell>
        <mxCell id="F8WtnGjkMqj1ZkM-OKdL-1" value="" style="rounded=0;whiteSpace=wrap;html=1;" vertex="1" parent="1">
          <mxGeometry y="160" width="400" height="200" as="geometry" />
        </mxCell>
        <mxCell id="F8WtnGjkMqj1ZkM-OKdL-3" value="MY PC" style="text;html=1;strokeColor=none;fillColor=none;align=center;verticalAlign=middle;whiteSpace=wrap;rounded=0;fontSize=20;" vertex="1" parent="1">
          <mxGeometry x="330" y="320" width="60" height="30" as="geometry" />
        </mxCell>
        <mxCell id="F8WtnGjkMqj1ZkM-OKdL-4" value=".py files" style="strokeWidth=2;html=1;shape=mxgraph.flowchart.multi-document;whiteSpace=wrap;" vertex="1" parent="1">
          <mxGeometry x="10" y="170" width="290" height="180" as="geometry" />
        </mxCell>
        <mxCell id="F8WtnGjkMqj1ZkM-OKdL-5" value="git init&lt;br style=&quot;font-size: 30px;&quot;&gt;" style="text;html=1;strokeColor=#6c8ebf;fillColor=#dae8fc;align=center;verticalAlign=middle;whiteSpace=wrap;rounded=0;fontSize=30;" vertex="1" parent="1">
          <mxGeometry x="150" y="370" width="130" height="30" as="geometry" />
        </mxCell>
        <mxCell id="F8WtnGjkMqj1ZkM-OKdL-13" value="" style="group" vertex="1" connectable="0" parent="1">
          <mxGeometry x="560" y="160" width="400" height="200" as="geometry" />
        </mxCell>
        <mxCell id="F8WtnGjkMqj1ZkM-OKdL-7" value="" style="rounded=0;whiteSpace=wrap;html=1;" vertex="1" parent="F8WtnGjkMqj1ZkM-OKdL-13">
          <mxGeometry width="400" height="200" as="geometry" />
        </mxCell>
        <mxCell id="F8WtnGjkMqj1ZkM-OKdL-8" value="STAGE AREA" style="text;html=1;strokeColor=none;fillColor=none;align=center;verticalAlign=middle;whiteSpace=wrap;rounded=0;fontSize=20;" vertex="1" parent="F8WtnGjkMqj1ZkM-OKdL-13">
          <mxGeometry x="330" y="160" width="60" height="30" as="geometry" />
        </mxCell>
        <mxCell id="F8WtnGjkMqj1ZkM-OKdL-11" value=".py files" style="strokeWidth=2;html=1;shape=mxgraph.flowchart.multi-document;whiteSpace=wrap;" vertex="1" parent="F8WtnGjkMqj1ZkM-OKdL-13">
          <mxGeometry x="10" width="290" height="180" as="geometry" />
        </mxCell>
        <mxCell id="F8WtnGjkMqj1ZkM-OKdL-14" value="git commit" style="text;html=1;strokeColor=#6c8ebf;fillColor=#dae8fc;align=center;verticalAlign=middle;whiteSpace=wrap;rounded=0;fontSize=30;" vertex="1" parent="1">
          <mxGeometry x="970" y="280" width="140" height="80" as="geometry" />
        </mxCell>
        <mxCell id="F8WtnGjkMqj1ZkM-OKdL-30" style="edgeStyle=orthogonalEdgeStyle;rounded=0;orthogonalLoop=1;jettySize=auto;html=1;entryX=-0.003;entryY=0.25;entryDx=0;entryDy=0;entryPerimeter=0;" edge="1" parent="1" source="F8WtnGjkMqj1ZkM-OKdL-16" target="F8WtnGjkMqj1ZkM-OKdL-27">
          <mxGeometry relative="1" as="geometry" />
        </mxCell>
        <mxCell id="F8WtnGjkMqj1ZkM-OKdL-16" value="" style="rounded=0;whiteSpace=wrap;html=1;container=0;" vertex="1" parent="1">
          <mxGeometry x="1120" y="160" width="400" height="200" as="geometry" />
        </mxCell>
        <mxCell id="F8WtnGjkMqj1ZkM-OKdL-17" value="COMMIT HISTORY" style="text;html=1;strokeColor=none;fillColor=none;align=center;verticalAlign=middle;whiteSpace=wrap;rounded=0;fontSize=20;container=0;" vertex="1" parent="1">
          <mxGeometry x="1440" y="320" width="60" height="30" as="geometry" />
        </mxCell>
        <mxCell id="F8WtnGjkMqj1ZkM-OKdL-18" value=".py files" style="strokeWidth=2;html=1;shape=mxgraph.flowchart.multi-document;whiteSpace=wrap;container=0;" vertex="1" parent="1">
          <mxGeometry x="1120" y="160" width="160" height="80" as="geometry" />
        </mxCell>
        <mxCell id="F8WtnGjkMqj1ZkM-OKdL-19" value=".py files" style="strokeWidth=2;html=1;shape=mxgraph.flowchart.multi-document;whiteSpace=wrap;container=0;" vertex="1" parent="1">
          <mxGeometry x="1120" y="160" width="160" height="80" as="geometry" />
        </mxCell>
        <mxCell id="F8WtnGjkMqj1ZkM-OKdL-20" value=".py files" style="strokeWidth=2;html=1;shape=mxgraph.flowchart.multi-document;whiteSpace=wrap;container=0;" vertex="1" parent="1">
          <mxGeometry x="1120" y="240" width="160" height="80" as="geometry" />
        </mxCell>
        <mxCell id="F8WtnGjkMqj1ZkM-OKdL-21" value=".py files" style="strokeWidth=2;html=1;shape=mxgraph.flowchart.multi-document;whiteSpace=wrap;container=0;" vertex="1" parent="1">
          <mxGeometry x="1290" y="160" width="160" height="80" as="geometry" />
        </mxCell>
        <mxCell id="F8WtnGjkMqj1ZkM-OKdL-22" style="edgeStyle=orthogonalEdgeStyle;rounded=0;orthogonalLoop=1;jettySize=auto;html=1;entryX=0;entryY=0.25;entryDx=0;entryDy=0;entryPerimeter=0;" edge="1" parent="1" source="F8WtnGjkMqj1ZkM-OKdL-7" target="F8WtnGjkMqj1ZkM-OKdL-20">
          <mxGeometry relative="1" as="geometry" />
        </mxCell>
        <mxCell id="F8WtnGjkMqj1ZkM-OKdL-23" value="" style="rounded=0;whiteSpace=wrap;html=1;container=0;" vertex="1" parent="1">
          <mxGeometry x="1680" y="160" width="400" height="200" as="geometry" />
        </mxCell>
        <mxCell id="F8WtnGjkMqj1ZkM-OKdL-24" value="GIT HUB" style="text;html=1;strokeColor=none;fillColor=none;align=center;verticalAlign=middle;whiteSpace=wrap;rounded=0;fontSize=20;container=0;" vertex="1" parent="1">
          <mxGeometry x="2000" y="320" width="60" height="30" as="geometry" />
        </mxCell>
        <mxCell id="F8WtnGjkMqj1ZkM-OKdL-25" value=".py files" style="strokeWidth=2;html=1;shape=mxgraph.flowchart.multi-document;whiteSpace=wrap;container=0;" vertex="1" parent="1">
          <mxGeometry x="1680" y="160" width="160" height="80" as="geometry" />
        </mxCell>
        <mxCell id="F8WtnGjkMqj1ZkM-OKdL-26" value=".py files" style="strokeWidth=2;html=1;shape=mxgraph.flowchart.multi-document;whiteSpace=wrap;container=0;" vertex="1" parent="1">
          <mxGeometry x="1680" y="160" width="160" height="80" as="geometry" />
        </mxCell>
        <mxCell id="F8WtnGjkMqj1ZkM-OKdL-27" value=".py files" style="strokeWidth=2;html=1;shape=mxgraph.flowchart.multi-document;whiteSpace=wrap;container=0;" vertex="1" parent="1">
          <mxGeometry x="1680" y="240" width="160" height="80" as="geometry" />
        </mxCell>
        <mxCell id="F8WtnGjkMqj1ZkM-OKdL-28" value=".py files" style="strokeWidth=2;html=1;shape=mxgraph.flowchart.multi-document;whiteSpace=wrap;container=0;" vertex="1" parent="1">
          <mxGeometry x="1850" y="160" width="160" height="80" as="geometry" />
        </mxCell>
        <mxCell id="F8WtnGjkMqj1ZkM-OKdL-29" value="git add ." style="text;html=1;strokeColor=#6c8ebf;fillColor=#dae8fc;align=center;verticalAlign=middle;whiteSpace=wrap;rounded=0;fontSize=30;" vertex="1" parent="1">
          <mxGeometry x="410" y="280" width="140" height="80" as="geometry" />
        </mxCell>
        <mxCell id="F8WtnGjkMqj1ZkM-OKdL-32" value="git push" style="text;html=1;strokeColor=#6c8ebf;fillColor=#dae8fc;align=center;verticalAlign=middle;whiteSpace=wrap;rounded=0;fontSize=30;" vertex="1" parent="1">
          <mxGeometry x="1530" y="280" width="140" height="80" as="geometry" />
        </mxCell>
      </root>
    </mxGraphModel>
  </diagram>
</mxfile>
